<!DOCTYPE svg PUBLIC "-//W3C//DTD SVG 1.1//EN" "http://www.w3.org/Graphics/SVG/1.1/DTD/svg11.dtd">

<!-- Uploaded to: SVG Repo, www.svgrepo.com, Transformed by: SVG Repo Mixer Tools -->
<svg fill="#000" height="800px" width="800px" version="1.1" id="Capa_1" xmlns="http://www.w3.org/2000/svg" xmlns:xlink="http://www.w3.org/1999/xlink" viewBox="0 0 196.221 196.221" xml:space="preserve" stroke="#000">

<g id="SVGRepo_bgCarrier" stroke-width="0"/>

<g id="SVGRepo_tracerCarrier" stroke-linecap="round" stroke-linejoin="round"/>

<g id="SVGRepo_iconCarrier"> <path d="M105.611,155.086V98.479c23.762-3.618,42.026-24.189,42.026-48.948C147.638,22.219,125.429,0,98.13,0 C70.81,0,48.583,22.219,48.583,49.53c0,24.748,18.263,45.313,42.028,48.944v56.612c-18.468,0.626-52.535,4.021-52.535,20.503 c0,19.144,45.969,20.631,60.058,20.631c14.078,0,60.011-1.487,60.011-20.631C158.145,159.097,124.056,155.708,105.611,155.086z M63.583,49.53C63.583,30.49,79.081,15,98.13,15c19.027,0,34.508,15.49,34.508,34.53c0,19.031-15.48,34.514-34.508,34.514 C79.081,84.044,63.583,68.562,63.583,49.53z M90.611,170.095v5.493c0,2.211,0.962,4.191,2.484,5.564 c-18.031-0.442-30.703-3.186-36.811-5.563C62.109,173.32,73.892,170.715,90.611,170.095z M103.126,181.153 c1.522-1.373,2.485-3.354,2.485-5.565v-5.495c16.731,0.617,28.518,3.227,34.337,5.496 C133.847,177.968,121.17,180.714,103.126,181.153z"/> </g>

</svg>